<?xml version="1.0" standalone="no"?>
<!DOCTYPE svg PUBLIC "-//W3C//DTD SVG 20010904//EN"
 "http://www.w3.org/TR/2001/REC-SVG-20010904/DTD/svg10.dtd">
<svg version="1.0" xmlns="http://www.w3.org/2000/svg"
 width="1888.000000pt" height="2152.000000pt" viewBox="0 0 1888.000000 2152.000000"
 preserveAspectRatio="xMidYMid meet">

<g transform="translate(0.000000,2152.000000) scale(0.100000,-0.100000)"
fill="#000000" stroke="none">
<path d="M2820 17479 c-101 -17 -254 -71 -351 -123 -99 -54 -234 -152 -280
-202 -114 -127 -213 -303 -266 -475 l-38 -124 0 -6090 0 -6090 38 -124 c44
-142 115 -280 204 -397 67 -88 89 -109 181 -179 143 -108 351 -197 522 -224
91 -15 13129 -15 13220 0 110 17 260 69 361 123 99 54 234 152 280 202 114
127 213 303 266 475 l38 124 0 6090 0 6090 -38 124 c-53 172 -152 348 -266
475 -46 50 -181 148 -280 202 -101 54 -251 106 -361 123 -83 14 -13149 13
-13230 0z m4422 -3950 c555 -38 1065 -213 1513 -518 156 -106 225 -160 225
-177 0 -8 -116 -135 -257 -282 -142 -147 -301 -314 -354 -371 l-97 -104 -58
45 c-205 157 -497 296 -739 351 -230 53 -220 52 -485 52 -311 0 -441 -20 -695
-109 -531 -184 -1000 -611 -1218 -1108 -69 -158 -106 -276 -136 -428 -61 -315
-47 -595 45 -900 124 -408 429 -813 789 -1046 506 -326 1083 -412 1665 -247
80 23 273 99 361 144 111 55 300 185 404 277 163 144 309 322 414 504 63 107
151 292 151 316 0 9 -225 12 -1089 12 -600 0 -1092 4 -1095 8 -2 4 19 64 48
132 99 232 244 565 276 635 18 39 43 98 57 133 14 34 30 62 37 62 6 1 601 1
1321 0 721 0 1383 0 1473 0 l162 0 -1 -142 c-1 -224 -21 -464 -48 -603 -66
-332 -133 -545 -250 -790 -467 -977 -1386 -1624 -2486 -1750 -180 -21 -602
-20 -755 1 -213 29 -373 65 -553 125 -468 155 -927 456 -1261 825 -334 369
-553 775 -671 1244 -48 190 -64 296 -77 519 -23 400 26 758 155 1121 135 380
327 705 592 1005 98 111 304 308 400 383 309 242 705 448 1078 561 92 27 318
76 447 96 201 31 483 40 712 24z m4953 -29 c144 -10 332 -36 425 -60 19 -5 73
-19 120 -30 109 -27 331 -101 440 -147 559 -237 1105 -713 1409 -1228 135
-229 208 -385 284 -615 71 -211 96 -323 123 -536 58 -470 6 -916 -160 -1369
-130 -356 -400 -762 -703 -1056 -454 -439 -1003 -719 -1623 -825 -124 -22
-396 -44 -541 -44 -278 0 -599 42 -829 110 -41 12 -95 27 -120 34 -25 7 -97
33 -160 58 -308 121 -587 287 -845 503 -124 104 -385 361 -385 379 0 6 32 58
71 116 178 265 321 558 427 872 15 45 32 83 38 85 5 2 22 -21 37 -52 114 -232
320 -489 522 -650 91 -72 209 -155 220 -155 4 0 19 -8 33 -19 15 -10 63 -37
107 -59 488 -246 1062 -279 1579 -90 613 223 1081 727 1235 1329 48 189 56
256 56 489 0 176 -4 245 -18 315 -84 422 -247 734 -541 1033 -209 214 -435
362 -721 475 -245 96 -601 144 -861 117 -415 -43 -728 -163 -1039 -396 -144
-108 -247 -204 -346 -322 -85 -103 -191 -256 -234 -341 l-25 -51 -873 2 c-573
2 -872 6 -872 13 0 13 101 107 379 350 126 110 277 243 336 295 159 140 342
302 455 401 55 48 177 154 270 236 257 224 358 299 582 431 231 136 545 265
773 317 169 38 200 44 305 60 216 33 423 41 670 25z"/>
</g>
</svg>
