<?xml version="1.0" standalone="no"?>
<!DOCTYPE svg PUBLIC "-//W3C//DTD SVG 20010904//EN"
 "http://www.w3.org/TR/2001/REC-SVG-20010904/DTD/svg10.dtd">
<svg version="1.0" xmlns="http://www.w3.org/2000/svg"
 width="6000.000000pt" height="3375.000000pt" viewBox="0 0 6000.000000 3375.000000"
 preserveAspectRatio="xMidYMid meet">

<g transform="translate(0.000000,3375.000000) scale(0.100000,-0.100000)"
fill="#000000" stroke="none">
<path d="M0 16875 l0 -16875 30000 0 30000 0 0 16875 0 16875 -30000 0 -30000
0 0 -16875z m38270 3155 c168 -10 276 -25 455 -61 90 -18 140 -31 285 -74 250
-74 555 -219 775 -370 199 -137 245 -172 245 -191 0 -13 -53 -69 -410 -439
-75 -77 -172 -180 -217 -229 l-81 -89 -78 60 c-210 159 -493 289 -749 343 -55
12 -118 26 -140 32 -22 6 -146 12 -275 15 -206 4 -251 2 -361 -16 -249 -42
-430 -101 -647 -214 -332 -171 -653 -470 -837 -779 -267 -450 -348 -970 -225
-1443 62 -236 128 -382 269 -595 148 -225 385 -454 609 -587 329 -198 748
-307 1102 -288 191 10 412 51 568 104 330 114 565 261 801 500 131 134 221
250 306 396 66 114 155 298 155 323 0 9 -222 12 -1079 12 -594 0 -1086 3
-1095 6 -16 6 -13 18 19 89 7 16 64 147 125 290 62 143 133 307 159 365 26 58
58 131 71 162 13 31 28 58 34 60 6 2 674 2 1484 0 l1472 -2 -1 -143 c-1 -213
-21 -466 -48 -602 -67 -335 -153 -601 -277 -847 -330 -658 -869 -1163 -1554
-1456 -164 -70 -384 -140 -550 -176 -300 -63 -422 -76 -741 -76 -173 0 -291 5
-369 15 -582 79 -1075 298 -1535 685 -141 118 -152 129 -262 249 -142 155
-291 354 -381 507 -231 396 -356 807 -383 1259 -31 520 56 967 281 1439 231
483 616 927 1068 1230 472 317 1031 506 1582 535 215 12 250 12 430 1z m4972
-30 c142 -10 346 -39 428 -60 19 -5 73 -19 120 -30 109 -27 331 -101 440 -147
524 -222 1030 -647 1345 -1128 75 -115 99 -155 172 -293 113 -213 215 -497
262 -732 92 -457 77 -928 -45 -1355 -18 -66 -43 -145 -55 -175 -11 -30 -24
-66 -29 -80 -25 -77 -120 -272 -188 -390 -300 -514 -743 -930 -1279 -1198
-345 -173 -701 -272 -1103 -307 -395 -34 -796 0 -1120 95 -41 12 -95 27 -120
34 -79 22 -281 106 -405 168 -244 122 -461 268 -660 444 -112 99 -325 314
-325 328 0 5 33 59 74 120 181 274 296 507 411 830 23 66 46 121 51 123 5 2
22 -21 37 -52 113 -231 321 -490 522 -650 91 -72 209 -155 220 -155 4 0 19 -8
33 -19 83 -58 319 -159 462 -197 400 -106 820 -94 1190 35 380 132 676 344
935 667 186 231 313 523 376 864 22 116 19 499 -4 615 -66 333 -188 607 -380
855 -126 163 -352 368 -520 472 -502 312 -1097 388 -1667 211 -216 -67 -471
-205 -658 -356 -212 -172 -414 -412 -516 -615 l-26 -52 -873 2 c-573 2 -872 6
-872 13 0 13 108 113 335 310 101 88 230 201 285 250 55 50 170 151 255 225
85 74 197 173 249 220 53 47 114 101 137 120 22 19 110 96 195 170 238 209
335 281 544 405 223 131 535 266 735 315 377 94 683 123 1032 100z m-24952
-715 c510 -79 944 -286 1278 -610 162 -156 272 -298 380 -490 49 -88 132 -267
132 -285 0 -6 -176 -10 -463 -10 l-463 0 -18 38 c-31 65 -142 224 -205 294
-255 279 -652 423 -1115 405 -158 -6 -262 -21 -399 -58 -517 -139 -902 -530
-1060 -1079 -88 -303 -100 -723 -31 -1050 141 -673 610 -1139 1259 -1250 165
-29 428 -31 580 -6 437 72 755 291 961 663 l29 53 463 0 463 0 -6 -22 c-16
-51 -125 -269 -178 -355 -295 -475 -770 -811 -1352 -956 -226 -56 -364 -72
-645 -72 -257 0 -332 7 -549 51 -267 55 -592 190 -821 341 -350 232 -616 535
-805 918 -113 230 -183 455 -222 720 -22 152 -25 593 -5 730 81 541 309 1003
671 1364 185 184 372 316 612 435 272 135 560 218 874 250 97 10 534 -3 635
-19z m11240 -550 l0 -465 455 0 455 0 -2 -312 -3 -313 -452 -3 -453 -2 0
-1078 c0 -860 3 -1088 14 -1133 19 -81 59 -145 114 -180 92 -58 118 -62 465
-67 l317 -4 0 -324 0 -324 -369 0 c-515 0 -639 18 -856 125 -270 133 -412 351
-455 695 -6 54 -10 485 -10 1187 l0 1103 -220 0 -220 0 0 315 0 315 220 0 220
0 0 465 0 465 390 0 390 0 0 -465z m-6995 -415 c611 -70 1112 -393 1409 -906
107 -185 199 -469 230 -712 18 -142 21 -408 5 -550 -62 -570 -360 -1065 -821
-1366 -560 -365 -1341 -419 -1948 -134 -544 255 -907 760 -1007 1400 -22 144
-25 549 -4 678 37 230 96 417 191 606 145 287 357 525 623 698 218 143 531
253 810 285 105 12 407 13 512 1z m4298 -19 c509 -102 877 -400 1056 -854 39
-99 66 -194 93 -327 21 -103 22 -127 25 -1348 l4 -1242 -383 2 -383 3 -6 1160
c-6 1256 -3 1201 -60 1375 -98 297 -318 495 -632 567 -115 26 -386 24 -501 -5
-366 -92 -589 -341 -663 -743 -15 -85 -17 -205 -20 -1226 l-4 -1133 -384 0
-385 0 0 1870 0 1870 385 0 385 0 0 -211 0 -211 108 103 c196 188 436 305 737
360 143 26 473 21 628 -10z m5724 14 c355 -50 639 -193 901 -450 l122 -121 0
263 0 263 390 0 390 0 0 -1870 0 -1870 -390 0 -390 0 0 271 0 272 -82 -88
c-197 -211 -455 -369 -728 -448 -265 -77 -613 -87 -870 -27 -341 81 -605 232
-845 482 -268 278 -446 650 -510 1063 -25 160 -30 473 -11 643 96 826 647
1455 1401 1600 149 29 147 29 345 30 107 1 215 -4 277 -13z"/>
<path d="M22088 17644 c-359 -55 -640 -270 -799 -609 -157 -334 -161 -897 -9
-1258 178 -425 607 -675 1078 -628 403 41 728 266 902 625 100 206 136 399
127 686 -12 383 -106 638 -319 865 -237 254 -613 377 -980 319z"/>
<path d="M32274 17645 c-477 -74 -828 -429 -931 -941 -27 -138 -25 -464 5
-601 70 -322 233 -585 469 -752 507 -361 1200 -235 1546 280 160 240 225 491
214 829 -12 365 -111 622 -330 856 -245 263 -609 386 -973 329z"/>
</g>
</svg>
